/vscmnt/brussel_pixiu_data/_data_brussel/112/vsc11236/PredSimResults/SUBJ06opt3D/expIG/worker_12.mot
version=1
nRows=4
nColumns=50
inDegrees=yes
endheader
                time	         pelvis_tilt	         pelvis_list	     pelvis_rotation	           pelvis_tx	           pelvis_ty	           pelvis_tz	       hip_flexion_r	     hip_adduction_r	      hip_rotation_r	        knee_angle_r	       ankle_angle_r	         mtp_angle_r	       hip_flexion_l	     hip_adduction_l	      hip_rotation_l	        knee_angle_l	       ankle_angle_l	         mtp_angle_l	    lumbar_extension	      lumbar_bending	     lumbar_rotation	 ercspn_r/activation	 intobl_r/activation	 extobl_r/activation	    abd_r/activation	    add_r/activation	hamstrings_r/activation	bifemsh_r/activation	glut_max_r/activation	iliopsoas_r/activation	rect_fem_r/activation	  vasti_r/activation	gastroc_r/activation	 soleus_r/activation	tib_ant_r/activation	 ercspn_l/activation	 intobl_l/activation	 extobl_l/activation	    abd_l/activation	    add_l/activation	hamstrings_l/activation	bifemsh_l/activation	glut_max_l/activation	iliopsoas_l/activation	rect_fem_l/activation	  vasti_l/activation	gastroc_l/activation	 soleus_l/activation	tib_ant_l/activation	
          0.00000000	         -7.77299001	         -2.86259843	          9.32139451	          0.00000000	          0.91523743	         -0.00909218	         35.91150634	         -1.67832336	         -9.76336418	         -8.31618016	          2.84932825	          0.32657229	        -13.30710301	         -4.03801131	         -1.72118437	        -11.52536440	          1.63238189	         43.34840569	        -11.28060984	          2.96236112	         -8.93255478	          0.20672710	          0.13766982	          0.00999999	          0.00999999	          0.45914111	          0.19648780	          0.22728681	          0.11450974	          0.17978562	          0.00999999	          0.00999999	          0.01759886	          0.00999999	          0.79563569	          0.21523980	          0.00999999	          0.00999999	          0.02265172	          0.28182376	          0.04144898	          0.40028673	          0.01828745	          0.45893417	          0.09384549	          0.02508212	          0.39984821	          0.25596406	          0.01352303	
          0.00977336	         -7.71145357	         -2.85141936	          9.36148916	          0.02060794	          0.91275447	         -0.00843068	         36.19365890	         -1.58030369	         -9.52998612	        -11.04484713	          2.24549595	          0.26198068	        -14.39380841	         -4.26296910	         -2.12187404	        -11.70825101	         -0.14968577	         44.96364091	        -10.89326805	          3.16379274	         -9.41202721	          0.17777022	          0.11838600	          0.00999999	          0.05344704	          0.48414090	          0.17815054	          0.19545007	          0.30010313	          0.15460251	          0.00999999	          0.00999999	          0.01513374	          0.01162888	          0.87625964	          0.21802863	          0.00999999	          0.00999999	          0.01947883	          0.39344660	          0.05901039	          0.42956065	          0.01572587	          0.64774457	          0.08070027	          0.02156879	          0.34384029	          0.22011041	          0.01162882	
          0.01954672	         -7.63819473	         -2.85307955	          9.35603434	          0.04118321	          0.91040280	         -0.00768978	         36.38741359	         -1.49422250	         -9.27700634	        -13.77835058	          1.99221782	          0.21968380	        -15.09064278	         -4.50464250	         -2.54550662	        -12.62695353	         -1.82207711	         46.32810055	        -10.52930545	          3.37860906	         -9.82898836	          0.17671263	          0.10180332	          0.00999999	          0.16222513	          0.53321854	          0.15319646	          0.16807280	          0.39212226	          0.13294688	          0.00999999	          0.00999999	          0.01301391	          0.00999999	          0.92507657	          0.23354395	          0.00999999	          0.00999999	          0.01675037	          0.33833537	          0.05074463	          0.38666484	          0.01352310	          0.78671319	          0.06939634	          0.01854759	          0.29567756	          0.18927890	          0.00999999	
          0.02932008	         -7.55360144	         -2.84807611	          9.30289234	          0.06148198	          0.90835667	         -0.00682321	         36.57713369	         -1.39624216	         -9.07898167	        -16.46364800	          1.60559420	          0.17685212	        -15.31554317	         -4.75308807	         -2.97965614	        -14.39360825	         -3.37503400	         47.29784181	        -10.22321405	          3.58170166	        -10.18072389	          0.21513069	          0.08754343	          0.00999999	          0.23994010	          0.59243394	          0.13173778	          0.14453034	          0.54406116	          0.11432462	          0.00999999	          0.00999999	          0.01119101	          0.00999999	          0.95463468	          0.28518639	          0.00999999	          0.00999999	          0.01440410	          0.29094373	          0.04363668	          0.33250355	          0.01162888	          0.81219368	          0.05967579	          0.01594957	          0.25426113	          0.16276604	          0.00999999	
